<mxfile host="app.diagrams.net" modified="2024-07-22T10:34:23.397Z" agent="Mozilla/5.0 (Windows NT 10.0; Win64; x64) AppleWebKit/537.36 (KHTML, like Gecko) Chrome/126.0.0.0 Safari/537.36 Edg/126.0.0.0" etag="UgbtZXcj_q5oHEfVLWbk" version="24.7.1" type="github">
  <diagram name="第 1 页" id="5jZQfyqA7LlsZKFDpGUY">
    <mxGraphModel dx="3506" dy="2761" grid="0" gridSize="10" guides="1" tooltips="1" connect="1" arrows="1" fold="1" page="0" pageScale="1" pageWidth="827" pageHeight="1169" math="0" shadow="0">
      <root>
        <mxCell id="0" />
        <mxCell id="1" parent="0" />
        <mxCell id="QM1hmZnKatTl1I3SXWaf-1" value="mailing list" style="rounded=0;whiteSpace=wrap;html=1;" parent="1" vertex="1">
          <mxGeometry x="-93" y="106" width="120" height="60" as="geometry" />
        </mxCell>
        <mxCell id="QM1hmZnKatTl1I3SXWaf-2" value="hosted and dev by infra" style="rounded=0;whiteSpace=wrap;html=1;" parent="1" vertex="1">
          <mxGeometry x="-170" y="-88" width="173" height="38" as="geometry" />
        </mxCell>
        <mxCell id="QM1hmZnKatTl1I3SXWaf-3" value="etherpad" style="rounded=0;whiteSpace=wrap;html=1;" parent="1" vertex="1">
          <mxGeometry x="71" y="106" width="120" height="60" as="geometry" />
        </mxCell>
        <mxCell id="QM1hmZnKatTl1I3SXWaf-4" value="website" style="rounded=0;whiteSpace=wrap;html=1;" parent="1" vertex="1">
          <mxGeometry x="235" y="106" width="120" height="60" as="geometry" />
        </mxCell>
        <mxCell id="QM1hmZnKatTl1I3SXWaf-6" value="EUR" style="rounded=0;whiteSpace=wrap;html=1;" parent="1" vertex="1">
          <mxGeometry x="-93" y="205" width="120" height="60" as="geometry" />
        </mxCell>
        <mxCell id="QM1hmZnKatTl1I3SXWaf-7" value="EulerMaker" style="rounded=0;whiteSpace=wrap;html=1;" parent="1" vertex="1">
          <mxGeometry x="71" y="205" width="120" height="60" as="geometry" />
        </mxCell>
        <mxCell id="QM1hmZnKatTl1I3SXWaf-8" value="repo" style="rounded=0;whiteSpace=wrap;html=1;" parent="1" vertex="1">
          <mxGeometry x="235" y="205" width="120" height="60" as="geometry" />
        </mxCell>
        <mxCell id="QM1hmZnKatTl1I3SXWaf-9" value="forum" style="rounded=0;whiteSpace=wrap;html=1;" parent="1" vertex="1">
          <mxGeometry x="235" y="304" width="120" height="60" as="geometry" />
        </mxCell>
        <mxCell id="QM1hmZnKatTl1I3SXWaf-10" value="ID" style="rounded=0;whiteSpace=wrap;html=1;" parent="1" vertex="1">
          <mxGeometry x="71" y="304" width="120" height="60" as="geometry" />
        </mxCell>
        <mxCell id="QM1hmZnKatTl1I3SXWaf-11" value="signatrust" style="rounded=0;whiteSpace=wrap;html=1;" parent="1" vertex="1">
          <mxGeometry x="-93" y="304" width="120" height="60" as="geometry" />
        </mxCell>
        <mxCell id="QM1hmZnKatTl1I3SXWaf-12" value="git(gitee/github)" style="rounded=0;whiteSpace=wrap;html=1;" parent="1" vertex="1">
          <mxGeometry x="-93" y="406" width="120" height="60" as="geometry" />
        </mxCell>
        <mxCell id="QM1hmZnKatTl1I3SXWaf-13" value="cla" style="rounded=0;whiteSpace=wrap;html=1;" parent="1" vertex="1">
          <mxGeometry x="71" y="406" width="120" height="60" as="geometry" />
        </mxCell>
        <mxCell id="QM1hmZnKatTl1I3SXWaf-14" value="cve-manager/defect-manager" style="rounded=0;whiteSpace=wrap;html=1;" parent="1" vertex="1">
          <mxGeometry x="235" y="403" width="120" height="60" as="geometry" />
        </mxCell>
        <mxCell id="QM1hmZnKatTl1I3SXWaf-15" value="robot" style="rounded=0;whiteSpace=wrap;html=1;" parent="1" vertex="1">
          <mxGeometry x="-93" y="508" width="120" height="60" as="geometry" />
        </mxCell>
        <mxCell id="QM1hmZnKatTl1I3SXWaf-16" value="metalink" style="rounded=0;whiteSpace=wrap;html=1;" parent="1" vertex="1">
          <mxGeometry x="71" y="508" width="120" height="60" as="geometry" />
        </mxCell>
        <mxCell id="QM1hmZnKatTl1I3SXWaf-17" value="wsl" style="rounded=0;whiteSpace=wrap;html=1;" parent="1" vertex="1">
          <mxGeometry x="235" y="508" width="120" height="60" as="geometry" />
        </mxCell>
        <mxCell id="QM1hmZnKatTl1I3SXWaf-18" value="software-pkg" style="rounded=0;whiteSpace=wrap;html=1;" parent="1" vertex="1">
          <mxGeometry x="-93" y="610" width="120" height="60" as="geometry" />
        </mxCell>
        <mxCell id="QM1hmZnKatTl1I3SXWaf-19" value="patch2pr" style="rounded=0;whiteSpace=wrap;html=1;" parent="1" vertex="1">
          <mxGeometry x="71" y="610" width="120" height="60" as="geometry" />
        </mxCell>
        <mxCell id="QM1hmZnKatTl1I3SXWaf-20" value="not hosted by infra" style="rounded=0;whiteSpace=wrap;html=1;" parent="1" vertex="1">
          <mxGeometry x="39" y="-88" width="113" height="38" as="geometry" />
        </mxCell>
        <mxCell id="QM1hmZnKatTl1I3SXWaf-21" value="hosted but not dev by infra" style="rounded=0;whiteSpace=wrap;html=1;" parent="1" vertex="1">
          <mxGeometry x="-170" y="-28" width="173" height="38" as="geometry" />
        </mxCell>
        <mxCell id="QM1hmZnKatTl1I3SXWaf-22" value="meeting" style="rounded=0;whiteSpace=wrap;html=1;" parent="1" vertex="1">
          <mxGeometry x="235" y="610" width="120" height="60" as="geometry" />
        </mxCell>
        <mxCell id="QM1hmZnKatTl1I3SXWaf-23" value="openEuler user" style="rounded=1;whiteSpace=wrap;html=1;" parent="1" vertex="1">
          <mxGeometry x="-943" y="46" width="120" height="60" as="geometry" />
        </mxCell>
        <mxCell id="QM1hmZnKatTl1I3SXWaf-24" value="openEuler developer" style="rounded=1;whiteSpace=wrap;html=1;" parent="1" vertex="1">
          <mxGeometry x="-782" y="46" width="120" height="60" as="geometry" />
        </mxCell>
        <mxCell id="QM1hmZnKatTl1I3SXWaf-25" value="openEuler maintainer" style="rounded=1;whiteSpace=wrap;html=1;" parent="1" vertex="1">
          <mxGeometry x="-621" y="46" width="120" height="60" as="geometry" />
        </mxCell>
        <mxCell id="QM1hmZnKatTl1I3SXWaf-26" value="openEuler TC" style="rounded=1;whiteSpace=wrap;html=1;" parent="1" vertex="1">
          <mxGeometry x="-460" y="46" width="120" height="60" as="geometry" />
        </mxCell>
        <mxCell id="QM1hmZnKatTl1I3SXWaf-28" style="edgeStyle=none;curved=1;rounded=0;orthogonalLoop=1;jettySize=auto;html=1;exitX=1;exitY=0.75;exitDx=0;exitDy=0;fontSize=12;startSize=8;endSize=8;" parent="1" source="QM1hmZnKatTl1I3SXWaf-23" target="QM1hmZnKatTl1I3SXWaf-23" edge="1">
          <mxGeometry relative="1" as="geometry" />
        </mxCell>
        <mxCell id="LPszTCYnKOj5HFPYQ0QZ-10" style="edgeStyle=none;curved=1;rounded=0;orthogonalLoop=1;jettySize=auto;html=1;entryX=0.5;entryY=1;entryDx=0;entryDy=0;fontSize=12;startSize=8;endSize=8;" edge="1" parent="1" source="LPszTCYnKOj5HFPYQ0QZ-1" target="LPszTCYnKOj5HFPYQ0QZ-4">
          <mxGeometry relative="1" as="geometry" />
        </mxCell>
        <mxCell id="LPszTCYnKOj5HFPYQ0QZ-12" style="edgeStyle=none;curved=1;rounded=0;orthogonalLoop=1;jettySize=auto;html=1;entryX=0;entryY=0.5;entryDx=0;entryDy=0;fontSize=12;startSize=8;endSize=8;" edge="1" parent="1" source="LPszTCYnKOj5HFPYQ0QZ-1" target="LPszTCYnKOj5HFPYQ0QZ-5">
          <mxGeometry relative="1" as="geometry" />
        </mxCell>
        <mxCell id="LPszTCYnKOj5HFPYQ0QZ-13" style="edgeStyle=none;curved=1;rounded=0;orthogonalLoop=1;jettySize=auto;html=1;entryX=0.5;entryY=0;entryDx=0;entryDy=0;fontSize=12;startSize=8;endSize=8;" edge="1" parent="1" source="LPszTCYnKOj5HFPYQ0QZ-1" target="LPszTCYnKOj5HFPYQ0QZ-2">
          <mxGeometry relative="1" as="geometry" />
        </mxCell>
        <mxCell id="LPszTCYnKOj5HFPYQ0QZ-15" value="" style="edgeStyle=none;curved=1;rounded=0;orthogonalLoop=1;jettySize=auto;html=1;fontSize=12;startSize=8;endSize=8;" edge="1" parent="1" source="LPszTCYnKOj5HFPYQ0QZ-1" target="LPszTCYnKOj5HFPYQ0QZ-14">
          <mxGeometry relative="1" as="geometry" />
        </mxCell>
        <mxCell id="LPszTCYnKOj5HFPYQ0QZ-1" value="kata" style="rounded=0;whiteSpace=wrap;html=1;" vertex="1" parent="1">
          <mxGeometry x="-662" y="-1083" width="120" height="60" as="geometry" />
        </mxCell>
        <mxCell id="LPszTCYnKOj5HFPYQ0QZ-2" value="ascend HDK" style="rounded=0;whiteSpace=wrap;html=1;" vertex="1" parent="1">
          <mxGeometry x="-584" y="-972" width="120" height="60" as="geometry" />
        </mxCell>
        <mxCell id="LPszTCYnKOj5HFPYQ0QZ-8" style="edgeStyle=none;curved=1;rounded=0;orthogonalLoop=1;jettySize=auto;html=1;entryX=0.5;entryY=0;entryDx=0;entryDy=0;fontSize=12;startSize=8;endSize=8;" edge="1" parent="1" source="LPszTCYnKOj5HFPYQ0QZ-4" target="LPszTCYnKOj5HFPYQ0QZ-7">
          <mxGeometry relative="1" as="geometry" />
        </mxCell>
        <mxCell id="LPszTCYnKOj5HFPYQ0QZ-4" value="space(NPU k8s)" style="rounded=0;whiteSpace=wrap;html=1;" vertex="1" parent="1">
          <mxGeometry x="-746" y="-1281" width="120" height="60" as="geometry" />
        </mxCell>
        <mxCell id="LPszTCYnKOj5HFPYQ0QZ-11" style="edgeStyle=none;curved=1;rounded=0;orthogonalLoop=1;jettySize=auto;html=1;entryX=0.5;entryY=0;entryDx=0;entryDy=0;fontSize=12;startSize=8;endSize=8;" edge="1" parent="1" source="LPszTCYnKOj5HFPYQ0QZ-5" target="LPszTCYnKOj5HFPYQ0QZ-2">
          <mxGeometry relative="1" as="geometry" />
        </mxCell>
        <mxCell id="LPszTCYnKOj5HFPYQ0QZ-5" value="VF" style="rounded=1;whiteSpace=wrap;html=1;" vertex="1" parent="1">
          <mxGeometry x="-475" y="-1083" width="120" height="60" as="geometry" />
        </mxCell>
        <mxCell id="LPszTCYnKOj5HFPYQ0QZ-9" style="edgeStyle=none;curved=1;rounded=0;orthogonalLoop=1;jettySize=auto;html=1;entryX=0.5;entryY=0;entryDx=0;entryDy=0;fontSize=12;startSize=8;endSize=8;" edge="1" parent="1" source="LPszTCYnKOj5HFPYQ0QZ-7" target="LPszTCYnKOj5HFPYQ0QZ-5">
          <mxGeometry relative="1" as="geometry" />
        </mxCell>
        <mxCell id="LPszTCYnKOj5HFPYQ0QZ-7" value="device plugin(vfio-dp)" style="rounded=1;whiteSpace=wrap;html=1;" vertex="1" parent="1">
          <mxGeometry x="-542" y="-1196" width="120" height="60" as="geometry" />
        </mxCell>
        <mxCell id="LPszTCYnKOj5HFPYQ0QZ-14" value="vm image(modified)&lt;div&gt;vm kernel(modified)&lt;/div&gt;" style="whiteSpace=wrap;html=1;rounded=0;" vertex="1" parent="1">
          <mxGeometry x="-902" y="-1083" width="120" height="60" as="geometry" />
        </mxCell>
        <mxCell id="LPszTCYnKOj5HFPYQ0QZ-17" style="edgeStyle=none;curved=1;rounded=0;orthogonalLoop=1;jettySize=auto;html=1;entryX=0;entryY=0.5;entryDx=0;entryDy=0;fontSize=12;startSize=8;endSize=8;" edge="1" parent="1" source="LPszTCYnKOj5HFPYQ0QZ-16" target="LPszTCYnKOj5HFPYQ0QZ-14">
          <mxGeometry relative="1" as="geometry" />
        </mxCell>
        <mxCell id="LPszTCYnKOj5HFPYQ0QZ-16" value="ascend HDK" style="rounded=0;whiteSpace=wrap;html=1;" vertex="1" parent="1">
          <mxGeometry x="-1074" y="-1083" width="120" height="60" as="geometry" />
        </mxCell>
      </root>
    </mxGraphModel>
  </diagram>
</mxfile>
